# Tiled2Unity generated file. Do not modify by hand.
# Wavefront file for 'Level_03_mesh_0003.obj'

# Vertices (Count = 72)
v -4.48 -7.84 0
v -4.64 -7.84 0
v -4.64 -7.68 0
v -4.48 -7.68 0
v -4.64 -7.84 0
v -4.8 -7.84 0
v -4.8 -7.68 0
v -4.64 -7.68 0
v -4.96 -7.84 0
v -5.12 -7.84 0
v -5.12 -7.68 0
v -4.96 -7.68 0
v -7.84 -7.84 0
v -8 -7.84 0
v -8 -7.68 0
v -7.84 -7.68 0
v -8.16 -7.84 0
v -8.32 -7.84 0
v -8.32 -7.68 0
v -8.16 -7.68 0
v -8.32 -7.84 0
v -8.48 -7.84 0
v -8.48 -7.68 0
v -8.32 -7.68 0
v -3.68 -8.48 0
v -3.84 -8.48 0
v -3.84 -8.32 0
v -3.68 -8.32 0
v -4.32 -8.48 0
v -4.48 -8.48 0
v -4.48 -8.32 0
v -4.32 -8.32 0
v -5.12 -8.48 0
v -5.28 -8.48 0
v -5.28 -8.32 0
v -5.12 -8.32 0
v -5.76 -8.48 0
v -5.92 -8.48 0
v -5.92 -8.32 0
v -5.76 -8.32 0
v -5.92 -8.48 0
v -6.08 -8.48 0
v -6.08 -8.32 0
v -5.92 -8.32 0
v -6.4 -8.48 0
v -6.56 -8.48 0
v -6.56 -8.32 0
v -6.4 -8.32 0
v -6.56 -8.48 0
v -6.72 -8.48 0
v -6.72 -8.32 0
v -6.56 -8.32 0
v -7.04 -8.48 0
v -7.2 -8.48 0
v -7.2 -8.32 0
v -7.04 -8.32 0
v -7.2 -8.48 0
v -7.36 -8.48 0
v -7.36 -8.32 0
v -7.2 -8.32 0
v -7.68 -8.48 0
v -7.84 -8.48 0
v -7.84 -8.32 0
v -7.68 -8.32 0
v -8.48 -8.48 0
v -8.639999 -8.48 0
v -8.639999 -8.32 0
v -8.48 -8.32 0
v -8.96 -8.48 0
v -9.12 -8.48 0
v -9.12 -8.32 0
v -8.96 -8.32 0

# Texture cooridinates (Count = 8)
vt 0.12 0.6521739
vt 0.16 0.6521739
vt 0.16 0.6956522
vt 0.12 0.6956522
vt 0.04 0.6521739
vt 0.08 0.6521739
vt 0.08 0.6956522
vt 0.04 0.6956522

# Normal
vn 0 0 -1

# Mesh description
g Level_03_mesh_0003

# Faces
f 1/1/1 2/2/1 3/3/1 4/4/1
f 5/1/1 6/2/1 7/3/1 8/4/1
f 9/1/1 10/2/1 11/3/1 12/4/1
f 13/1/1 14/2/1 15/3/1 16/4/1
f 17/1/1 18/2/1 19/3/1 20/4/1
f 21/1/1 22/2/1 23/3/1 24/4/1
f 25/5/1 26/6/1 27/7/1 28/8/1
f 29/5/1 30/6/1 31/7/1 32/8/1
f 33/5/1 34/6/1 35/7/1 36/8/1
f 37/5/1 38/6/1 39/7/1 40/8/1
f 41/5/1 42/6/1 43/7/1 44/8/1
f 45/5/1 46/6/1 47/7/1 48/8/1
f 49/5/1 50/6/1 51/7/1 52/8/1
f 53/5/1 54/6/1 55/7/1 56/8/1
f 57/5/1 58/6/1 59/7/1 60/8/1
f 61/5/1 62/6/1 63/7/1 64/8/1
f 65/5/1 66/6/1 67/7/1 68/8/1
f 69/5/1 70/6/1 71/7/1 72/8/1

